<svg xmlns="http://www.w3.org/2000/svg" height="400" viewBox="0 0 400 400" width="400">
  <defs>
    <linearGradient id="a" gradientUnits="userSpaceOnUse" x1="35.363636" x2="339.090909" y1="145.090909" y2="145.090909">
      <stop offset="0" stop-color="#1b75ba"/>
      <stop offset=".17" stop-color="#2967b2"/>
      <stop offset=".72" stop-color="#543d99"/>
      <stop offset="1" stop-color="#652d8f"/>
    </linearGradient>
    <linearGradient id="b" gradientTransform="matrix(.836072 -.548619 .548619 .836072 -112.750057 172.734729)" gradientUnits="userSpaceOnUse" x1="73.038164" x2="392.394819" y1="275.106532" y2="275.106532">
      <stop offset="0" stop-color="#d81c5c"/>
      <stop offset="1" stop-color="#ed4036"/>
    </linearGradient>
  </defs>
  <path d="m400 200c0 110.45697-89.54306 200-200 200-110.456955 0-200-89.54303-200-200 0-110.45694 89.543045-200 200-200 110.45694 0 200 89.54306 200 200z" fill="#fff"/>
  <path d="m338.636353 95.909088c-33.818177-44-77.909089-70-146.909073-70-81.818184 0-156.363644 75.272736-156.363644 155.636368 0 55.909103 31.727276 82.727249 66.727268 82.727249 27.80291.875916 53.518486-14.688766 65.636376-39.727249.44223-.837769.418045-1.845032-.063904-2.660614-.481934-.815552-1.35257-1.322632-2.299729-1.339386h-47.181831c-1.872291-.049301-3.364281-1.581604-3.363632-3.454559v-34.181794c-.000649-1.872955 1.491341-3.405258 3.363632-3.454559h63.63636c2.572739-.008911 4.894501-1.54483 5.909088-3.909088 27.818177-63.636368 77.090912-77.454544 105.363648-79.72728 14.516144-1.166534 29.125458-.000244 43.272735 3.454529.902497.331268 1.914612.004334 2.452851-.792267.538238-.79657.463928-1.857544-.180145-2.57135z" fill="url(#a)"/>
  <path d="m61.741951 305.684631c34.324608 44.177338 78.892693 69.404602 147.594414 69.23526 81.698059-.693328 156.158264-76.455658 155.688324-156.966278-.3909-55.994415-32.13498-82.855377-67.454773-82.468384-27.830658-.643463-53.443878 15.118866-65.410721 40.253586-.422974.856675-.36084 1.873261.1633 2.672043.524154.798783 1.432006 1.260407 2.38626 1.213364l46.97078-.250458c1.891418-.009125 3.43515 1.510895 3.455353 3.402222l.265594 34.28775c.009064.911758-.354339 1.787765-1.006195 2.425339-.651855.637588-1.535675.981537-2.447021.95227l-63.522171.439133c-2.55951.017609-4.870896 1.534302-5.905808 3.875305-27.430618 63.911881-76.745361 78.040024-105.069244 80.61763-14.510758 1.229889-29.124817.122437-43.28447-3.280151-.963802-.35495-2.04541-.005921-2.619934.845428-.574547.851349-.493511 1.984986.196312 2.745941z" fill="url(#b)"/>
</svg>